<svg xmlns="http://www.w3.org/2000/svg" width="24" height="24" viewBox="0 0 24 24"><g transform="translate(-243 -234)"><rect width="24" height="24" transform="translate(267 234) rotate(90)" fill="none"/><g transform="translate(36 53.98)"><ellipse cx="3" cy="3.5" rx="3" ry="3.5" transform="translate(214 186.02)" fill="none" stroke="#000" stroke-linecap="round" stroke-linejoin="round" stroke-width="2"/><path d="M16,7H0C0,3.14,3.589,0,8,0s8,3.14,8,7Z" transform="translate(209 195.02)" fill="none" stroke="#000" stroke-linecap="round" stroke-linejoin="round" stroke-width="2"/></g><path d="M13,37H9c0-3.193-2.467-5.98-6-6.779A9.084,9.084,0,0,1,5,30c4.411,0,8,3.14,8,7ZM5,28a2.767,2.767,0,0,1-2-.891,3.9,3.9,0,0,0,0-5.218A2.766,2.766,0,0,1,5,21a3.283,3.283,0,0,1,3,3.5A3.283,3.283,0,0,1,5,28Z" transform="translate(252 219)" fill="none" stroke="#000" stroke-linecap="round" stroke-linejoin="round" stroke-width="2"/></g></svg>