<svg xmlns="http://www.w3.org/2000/svg" width="24" height="24" viewBox="0 0 24 24"><g transform="translate(-243 -84)"><path d="M7.64,17.646a8.019,8.019,0,0,1-5.287-5.287L0,10.005,2.348,7.657A8.018,8.018,0,0,1,7.657,2.348L10.005,0l2.354,2.353A8.019,8.019,0,0,1,17.646,7.64l2.365,2.365-2.37,2.37a8.018,8.018,0,0,1-5.266,5.266l-2.37,2.37Z" transform="translate(245 86)" fill="none" stroke="#000" stroke-linejoin="round" stroke-width="2"/><path d="M10.427,21.225H7.075V17.88a8.02,8.02,0,0,1,0-7.477V7.075H10.4a8.018,8.018,0,0,1,7.507,0h3.321V10.4a8.02,8.02,0,0,1,0,7.477v3.344H17.874a8.017,8.017,0,0,1-7.448,0Z" transform="translate(240.855 81.85)" fill="none" stroke="#000" stroke-linejoin="round" stroke-width="2"/><rect width="24" height="24" transform="translate(243 84)" fill="none"/></g></svg>